<svg width="512" height="512" viewBox="0 0 512 512" fill="none" xmlns="http://www.w3.org/2000/svg">
<g clip-path="url(#clip0)">
<path d="M511.991 196.243C511.991 196.064 511.897 195.91 511.889 195.74C511.836 195.149 511.719 194.565 511.539 193.999C511.421 193.494 511.258 193 511.053 192.523C510.809 192.071 510.524 191.642 510.2 191.243C509.862 190.754 509.473 190.302 509.039 189.895C508.902 189.775 508.843 189.613 508.698 189.502L426.659 125.767V59.71C426.659 45.572 415.197 34.11 401.059 34.11H308.583L271.556 5.36101C262.407 -1.76699 249.584 -1.76699 240.435 5.36101L203.401 34.11H110.925C96.787 34.11 85.325 45.571 85.325 59.71V125.767L3.29398 189.502C3.14898 189.613 3.08898 189.775 2.95298 189.895C2.51898 190.302 2.12998 190.754 1.79198 191.243C1.46798 191.642 1.18198 192.071 0.938977 192.523C0.731977 192.999 0.568977 193.493 0.452977 193.999C0.274977 194.554 0.157977 195.126 0.102977 195.706C0.102977 195.877 0.000976562 196.03 0.000976562 196.209V486.376C0.0349766 489.124 0.515976 491.847 1.42598 494.44C-0.533023 497.394 -0.441023 501.256 1.65498 504.114C3.75098 506.972 7.40698 508.22 10.813 507.24C15.125 510.321 20.293 511.977 25.593 511.976H486.393C491.715 511.965 496.899 510.285 501.215 507.172C501.943 507.396 502.698 507.519 503.459 507.539C506.576 507.557 509.45 505.859 510.938 503.12C512.426 500.381 512.287 497.046 510.576 494.441C511.483 491.848 511.961 489.124 511.993 486.377V196.243H511.991ZM250.871 18.827C253.851 16.459 258.071 16.459 261.051 18.827L280.737 34.11H231.244L250.871 18.827ZM27.708 494.91L250.872 321.564C253.854 319.21 258.062 319.21 261.044 321.564L484.275 494.91H27.708ZM494.925 481.581L271.539 308.09C262.396 300.972 249.587 300.972 240.444 308.09L17.058 481.581V209.239L156.894 317.826C160.62 320.715 165.982 320.037 168.871 316.311C171.76 312.585 171.082 307.223 167.356 304.334L25.293 194.016L85.325 147.373V213.31C85.325 218.023 89.146 221.843 93.858 221.843C98.571 221.843 102.391 218.022 102.391 213.31V59.71C102.391 54.997 106.211 51.177 110.924 51.177H401.057C405.77 51.177 409.59 54.997 409.59 59.71V213.31C409.59 218.023 413.41 221.843 418.123 221.843C422.836 221.843 426.656 218.022 426.656 213.31V147.373L486.688 194.016L344.371 304.531C340.648 307.422 339.974 312.784 342.865 316.508C345.756 320.231 351.118 320.905 354.842 318.014L494.925 209.24V481.581V481.581Z" fill="#4C6275"/>
<path d="M170.658 110.91H341.325C346.038 110.91 349.858 107.09 349.858 102.377C349.858 97.664 346.038 93.844 341.325 93.844H170.658C165.945 93.844 162.125 97.664 162.125 102.377C162.125 107.09 165.945 110.91 170.658 110.91Z" fill="#4C6275"/>
<path d="M349.858 153.577C349.858 148.864 346.038 145.044 341.325 145.044H170.658C165.945 145.044 162.125 148.865 162.125 153.577C162.125 158.29 165.945 162.11 170.658 162.11H341.325C346.038 162.11 349.858 158.289 349.858 153.577Z" fill="#4C6275"/>
<path d="M349.858 204.777C349.858 200.064 346.038 196.244 341.325 196.244H264.525C259.812 196.244 255.992 200.064 255.992 204.777C255.992 209.49 259.812 213.31 264.525 213.31H341.325C346.038 213.31 349.858 209.489 349.858 204.777Z" fill="#4C6275"/>
</g>
<defs>
<clipPath id="clip0">
<rect width="511.991" height="511.991" fill="white"/>
</clipPath>
</defs>
</svg>
