<svg width="512" height="512" viewBox="0 0 512 512" fill="none" xmlns="http://www.w3.org/2000/svg">
<g clip-path="url(#clip0)">
<path d="M426.529 281.351C421.816 281.351 417.996 285.171 417.996 289.884V486.151C417.996 490.864 414.175 494.684 409.463 494.684H324.13V366.684C324.13 352.546 312.668 341.084 298.53 341.084H213.197C199.059 341.084 187.597 352.545 187.597 366.684V494.684H102.264C97.551 494.684 93.731 490.864 93.731 486.151V289.884C93.731 285.171 89.911 281.351 85.198 281.351C80.485 281.351 76.665 285.171 76.665 289.884V486.151C76.665 500.289 88.126 511.751 102.265 511.751H409.465C423.603 511.751 435.065 500.29 435.065 486.151V289.884C435.063 285.171 431.242 281.351 426.529 281.351ZM307.063 494.684H204.663V366.684C204.663 361.971 208.483 358.151 213.196 358.151H298.529C303.242 358.151 307.062 361.971 307.062 366.684V494.684H307.063Z" fill="#4C6275"/>
<path d="M480.315 219.817L274.047 7.482C263.976 -2.494 247.749 -2.494 237.678 7.482L31.436 219.817C24.041 227.44 21.945 238.757 26.12 248.523C29.995 258.079 39.292 264.319 49.604 264.284H52.522C58.625 264.225 64.502 261.968 69.077 257.927C69.686 257.53 70.257 257.079 70.784 256.579L255.863 65.927L441.079 256.681C441.573 257.15 442.107 257.575 442.675 257.952C447.247 261.977 453.113 264.224 459.204 264.284H462.122C472.443 264.329 481.753 258.088 485.631 248.523C489.806 238.757 487.71 227.44 480.315 219.817ZM469.913 241.884C468.645 245.082 465.563 247.192 462.122 247.217H459.204C456.946 247.218 454.787 246.292 453.231 244.657C453.171 244.589 453.077 244.572 453.018 244.512C452.958 244.452 452.899 244.358 452.822 244.299L261.981 47.734L261.879 47.666L261.836 47.538C261.425 47.21 260.982 46.924 260.513 46.685C260.071 46.332 259.593 46.026 259.088 45.772C258.564 45.603 258.023 45.488 257.475 45.431C256.45 45.056 255.325 45.056 254.301 45.431C253.753 45.489 253.213 45.603 252.688 45.772C252.183 46.027 251.705 46.333 251.263 46.685C250.794 46.924 250.351 47.21 249.94 47.538L249.872 47.64L249.77 47.708L58.888 244.299C58.811 244.359 58.777 244.444 58.7 244.504C58.623 244.564 58.538 244.589 58.478 244.658C56.921 246.293 54.762 247.219 52.505 247.218H49.604C46.163 247.193 43.082 245.083 41.813 241.885C40.298 238.434 41.023 234.409 43.648 231.705H43.63L249.889 19.378C251.462 17.793 253.603 16.901 255.837 16.901C258.07 16.901 260.211 17.793 261.785 19.378L468.078 231.704C470.703 234.409 471.428 238.433 469.913 241.884Z" fill="#4C6275"/>
<path d="M289.996 298.418C304.134 298.418 315.596 286.956 315.596 272.818V213.085C315.596 198.946 304.134 187.485 289.996 187.485H221.729C207.591 187.485 196.129 198.946 196.129 213.085V272.818C196.129 286.956 207.59 298.418 221.729 298.418H289.996ZM213.196 272.818V213.085C213.196 208.372 217.016 204.552 221.729 204.552H289.996C294.709 204.552 298.529 208.373 298.529 213.085V272.818C298.529 277.531 294.708 281.351 289.996 281.351H221.729C217.016 281.351 213.196 277.53 213.196 272.818Z" fill="#4C6275"/>
<path d="M230.263 417.884H221.73C217.017 417.884 213.197 421.704 213.197 426.417C213.197 431.13 217.017 434.95 221.73 434.95H230.263C234.976 434.95 238.796 431.13 238.796 426.417C238.796 421.704 234.975 417.884 230.263 417.884Z" fill="#4C6275"/>
</g>
<defs>
<clipPath id="clip0">
<rect width="511.751" height="511.751" fill="white"/>
</clipPath>
</defs>
</svg>
